<svg width="25" height="29" viewBox="0 0 25 29" fill="none" xmlns="http://www.w3.org/2000/svg">
<path d="M20.6577 21.3834H19.1128L19.12 20.4793C19.12 20.0774 19.4474 19.7487 19.8477 19.7487H19.9462C20.3471 19.7487 20.6755 20.0774 20.6755 20.4793L20.6577 21.3834ZM14.8638 19.4459C14.4719 19.4459 14.1514 19.7112 14.1514 20.0361V24.4335C14.1514 24.7577 14.4719 25.0225 14.8638 25.0225C15.2572 25.0225 15.578 24.7577 15.578 24.4335V20.0361C15.578 19.7109 15.2572 19.4459 14.8638 19.4459ZM24.2728 16.9861V25.3515C24.2728 27.3581 22.5459 29 20.4356 29H4.65571C2.54449 29 0.818237 27.3581 0.818237 25.3515V16.9861C0.818237 14.9795 2.54449 13.3373 4.65571 13.3373H20.4356C22.5459 13.3373 24.2728 14.9795 24.2728 16.9861ZM5.70835 26.2598L5.7071 17.4478L7.66321 17.4484V16.1428L2.4488 16.1349V17.4185L4.07654 17.4232V26.2598H5.70835ZM11.572 18.7604H9.94112V23.4659C9.94112 24.1467 9.98209 24.487 9.93862 24.6071C9.80602 24.9721 9.20996 25.3594 8.9776 24.6465C8.9382 24.5217 8.97291 24.1451 8.97229 23.4984L8.96572 18.7604H7.34392L7.34892 23.4237C7.35017 24.1385 7.33297 24.6717 7.35455 24.9141C7.39427 25.3417 7.38019 25.8406 7.77392 26.1252C8.50758 26.6581 9.91391 26.0458 10.2657 25.2844L10.2626 26.256L11.5723 26.2576V18.7604H11.572ZM16.7892 24.1489L16.7858 20.2325C16.7845 18.7399 15.6765 17.8458 14.1723 19.0535L14.1789 16.1418L12.5496 16.1443L12.5418 26.1945L13.8812 26.1747L14.0031 25.5488C15.7156 27.1318 16.7917 26.0473 16.7892 24.1489ZM21.8932 23.6298L20.6702 23.6364C20.6695 23.6853 20.668 23.7417 20.6674 23.8032V24.4908C20.6674 24.8586 20.3656 25.1583 19.9991 25.1583H19.7595C19.3924 25.1583 19.0909 24.8586 19.0909 24.4908V24.4145V23.6582V22.6822H21.8911V21.6201C21.8911 20.8439 21.8714 20.068 21.8076 19.6242C21.6074 18.2206 19.6522 17.9977 18.6646 18.7163C18.3544 18.9407 18.1177 19.241 17.9801 19.6447C17.8409 20.0484 17.7721 20.6 17.7721 21.3005V23.6355C17.7724 27.5175 22.4515 26.9689 21.8932 23.6298ZM15.6206 10.9519C15.7047 11.158 15.8354 11.325 16.0127 11.4511C16.1878 11.5753 16.4121 11.6377 16.6801 11.6377C16.9153 11.6377 17.1235 11.5737 17.3049 11.4417C17.4857 11.3102 17.638 11.1139 17.7621 10.852L17.7315 11.4968H19.5494V3.70594H18.1183V9.76946C18.1183 10.0978 17.85 10.3667 17.5219 10.3667C17.1958 10.3667 16.9265 10.0978 16.9265 9.76946V3.70594H15.4329V8.96078C15.4329 9.63016 15.4448 10.0764 15.4645 10.3027C15.4855 10.5274 15.5364 10.743 15.6206 10.9519ZM10.1116 6.55176C10.1116 5.80391 10.1735 5.21993 10.2964 4.79889C10.4202 4.37942 10.6426 4.04221 10.9647 3.78788C11.2858 3.53229 11.6971 3.40434 12.1971 3.40434C12.6178 3.40434 12.978 3.48754 13.2792 3.65048C13.5816 3.81436 13.8146 4.02708 13.9766 4.2896C14.1414 4.55307 14.2533 4.82379 14.313 5.1008C14.374 5.3816 14.404 5.80517 14.404 6.37654V8.34686C14.404 9.06951 14.3753 9.60117 14.3196 9.93869C14.2643 10.2772 14.1454 10.5911 13.9615 10.8854C13.7798 11.1766 13.5456 11.3944 13.2617 11.5334C12.9746 11.6736 12.6462 11.7423 12.2753 11.7423C11.861 11.7423 11.5119 11.6846 11.2242 11.5642C10.9356 11.4445 10.7126 11.2639 10.5538 11.0241C10.3933 10.7839 10.2804 10.4915 10.2123 10.1505C10.1438 9.8098 10.1112 9.29736 10.1112 8.61443V6.55176H10.1116ZM11.5354 9.64655C11.5354 10.0878 11.8613 10.448 12.2581 10.448C12.6553 10.448 12.9796 10.0878 12.9796 9.64655V5.49916C12.9796 5.05857 12.6553 4.69836 12.2581 4.69836C11.8613 4.69836 11.5354 5.05857 11.5354 5.49916V9.64655ZM6.50424 11.7407H8.21924L8.22112 5.76546L10.2476 0.646768H8.37185L7.29451 4.44876L6.20184 0.636368H4.34549L6.50143 5.7683L6.50424 11.7407Z" fill="black"/>
</svg>
